<svg xmlns="http://www.w3.org/2000/svg" id="Livello_1" viewBox="0 0 595.3 126.2"><defs><style>      .st0 {        fill: none;      }      .st1 {        fill: #aa3053;      }      .st2 {        fill: #1f1e1e;      }    </style></defs><g><rect class="st1" x="16.7" y="85.6" width="561.2" height="1.5"></rect><polygon class="st2" points="44.3 65.4 20.7 17.9 20.6 17.7 16.7 17.7 16.7 69.8 20 69.8 20 23.5 42.8 69.6 42.9 69.8 45.7 69.8 68.6 23.5 68.6 69.8 71.9 69.8 71.9 17.7 68 17.7 44.3 65.4"></polygon><path class="st2" d="M106,17.7h-3.1l-23.9,52h3.7l7.5-16.6h27.9l7.3,16.4h0c0,.1,3.5.1,3.5.1l-23-51.9h0ZM116.9,50.2h-25.2l12.8-27.8,12.4,27.8Z"></path><path class="st2" d="M156.7,17.7h-20.4v52h17.5c8.5,0,15.4-2.2,20.3-6.4,5.3-4.5,7.9-11,7.9-19.5s-2.1-14.7-6.3-19.1c-4.3-4.6-10.7-7-19-7M154,66.7h-14.5V20.7h17.1c7.4,0,13,2.1,16.8,6.2,3.6,3.8,5.4,9.5,5.4,16.9s-2.2,13.2-6.6,17.1c-4.4,3.9-10.5,5.8-18.2,5.8"></path><polygon class="st2" points="195.6 66.7 195.6 44.1 227 44.1 227 41.1 195.6 41.1 195.6 20.7 231 20.7 231 17.7 192.4 17.7 192.4 69.8 231.4 69.8 231.4 66.7 195.6 66.7"></polygon><polygon class="st2" points="289.7 44 321.1 44 321.1 41.1 289.7 41.1 289.7 20.7 325.1 20.7 325.1 17.7 286.6 17.7 286.6 69.7 325.5 69.7 325.5 66.7 289.7 66.7 289.7 44"></polygon><polygon class="st2" points="354.6 65.2 333.6 17.8 333.5 17.7 330.1 17.7 353.1 69.6 353.2 69.7 356 69.7 378.4 17.7 375 17.7 354.6 65.2"></polygon><polygon class="st2" points="389.3 44 420.7 44 420.7 41.1 389.3 41.1 389.3 20.7 424.7 20.7 424.7 17.7 386.1 17.7 386.1 69.7 425.1 69.7 425.1 66.7 389.3 66.7 389.3 44"></polygon><path class="st2" d="M474.9,64.9c-4-5.1-10.3-12.9-18.7-23.2-8.4-10.3-14.8-18.3-19.1-23.9h0c0,0-3.6,0-3.6,0v52h3.2V22.4l37.7,47.2h0c0,0,3.6,0,3.6,0V17.7h-3.2v47.2Z"></path><polygon class="st2" points="485.5 20.7 505.2 20.7 505.2 69.7 508.5 69.7 508.5 20.7 528.1 20.7 528.1 17.7 485.5 17.7 485.5 20.7"></polygon><path class="st2" d="M572.5,46.2c-3.1-1.9-9.2-3.7-18.4-5.4-5-.9-8.5-1.9-10.6-3-3.1-1.7-4.7-4.2-4.7-7.5,0-6.7,5.6-10.2,16.8-10.2s9.6.8,12.3,2.4c3.5,1.9,5.4,5.5,5.6,10.7v.2h3.2v-.3c-.2-10.7-7.4-16.1-21.2-16.1s-20,4.4-20,13.2,2.2,8,6.7,10.4c2.3,1.2,6.7,2.5,13.1,3.8,5.7,1.2,9.3,2,10.8,2.5,2.9.8,5,1.9,6.2,3.1,1.5,1.4,2.2,3.5,2.2,6.2,0,3.9-2,6.9-6.1,8.7-3,1.4-6.9,2.1-11.4,2.1-13.2,0-20-4.9-20-14.6v-1.2h-3.2v1.5c0,6.2,2.4,10.8,7.3,13.7,4,2.3,9.3,3.5,15.9,3.5s9.8-.9,13.5-2.8c4.9-2.4,7.4-6.1,7.4-10.9s-1.8-8.2-5.4-10.4"></path><polygon class="st2" points="26.5 101.3 18.4 101.3 18.4 95.8 16.7 95.8 16.7 108.9 18.4 108.9 18.4 102.9 26.5 102.9 26.5 108.9 28.1 108.9 28.1 95.8 26.5 95.8 26.5 101.3"></polygon><path class="st2" d="M66.2,95.9c-2.1,0-3.7.6-4.9,1.7-1.2,1.1-1.8,2.8-1.8,4.8s.6,3.7,1.8,4.9c1.2,1.2,2.9,1.8,5,1.8s3.7-.6,5-1.8c1.2-1.2,1.8-2.8,1.8-4.9s-.6-3.7-1.8-4.8c-1.2-1.1-2.9-1.7-5-1.7M66.2,107.5c-1.6,0-2.9-.4-3.8-1.4-.9-.9-1.4-2.1-1.4-3.7s.4-2.8,1.3-3.6c.9-.9,2.2-1.3,3.8-1.3s2.9.4,3.8,1.2c.9.9,1.4,2.1,1.4,3.7s-.4,2.8-1.4,3.7c-.9.9-2.2,1.3-3.8,1.3"></path><path class="st2" d="M113.7,102.6c-.8-.5-2.2-.9-4.5-1.3-1.1-.2-1.9-.4-2.4-.7-.6-.3-.9-.8-.9-1.4s0-2,3.5-2,2.1.2,2.7.5c.7.4,1,1.1,1.1,2.1v.5h1.6v-.5c0-1.9-1-4.2-5.4-4.2s-5.1,1.9-5.1,3.5.6,2.2,1.8,2.8c.6.3,1.6.6,3.2.9,1.3.3,2.2.5,2.5.6.8.2,1.1.5,1.3.6.3.2.4.6.4,1.1,0,.8-.4,1.3-1.2,1.7-.7.3-1.5.5-2.5.5-3.8,0-4.3-1.7-4.3-3v-.7h-1.6v.8c0,1.6.6,2.8,1.9,3.6,1,.6,2.3.9,3.9.9s2.4-.2,3.4-.7c1.3-.6,2-1.6,2-2.9s-.5-2.2-1.5-2.8"></path><polygon class="st2" points="145.8 97.4 150.5 97.4 150.5 108.9 152.1 108.9 152.1 97.4 156.7 97.4 156.7 95.8 145.8 95.8 145.8 97.4"></polygon><polygon class="st2" points="189.2 102.9 196.5 102.9 196.5 101.3 189.2 101.3 189.2 97.4 197.5 97.4 197.5 95.8 187.5 95.8 187.5 108.9 197.6 108.9 197.6 107.3 189.2 107.3 189.2 102.9"></polygon><path class="st2" d="M237.9,102.6c-.8-.5-2.2-.9-4.5-1.3-1.1-.2-1.9-.4-2.4-.7-.6-.3-.9-.8-.9-1.4s0-2,3.5-2,2.1.2,2.7.5c.7.4,1,1.1,1.1,2.1v.5h1.6v-.5c0-1.9-1-4.2-5.4-4.2s-5.1,1.9-5.1,3.5.6,2.2,1.8,2.8c.6.3,1.6.6,3.2.9,1.3.3,2.2.5,2.5.6.8.2,1.1.5,1.3.6.3.2.4.6.4,1.1,0,.8-.4,1.3-1.2,1.7-.7.3-1.5.5-2.5.5-3.8,0-4.3-1.7-4.3-3v-.7h-1.6v.8c0,1.6.6,2.8,1.9,3.6,1,.6,2.3.9,3.9.9s2.4-.2,3.4-.7c1.3-.6,2-1.6,2-2.9s-.5-2.2-1.5-2.8"></path><path class="st2" d="M280.4,102.6c-.8-.5-2.2-.9-4.5-1.3-1.1-.2-1.9-.4-2.4-.7-.6-.3-.9-.8-.9-1.4s0-2,3.5-2,2.1.2,2.7.5c.7.4,1,1.1,1.1,2.1v.5h1.6v-.5c0-1.9-1-4.2-5.4-4.2s-5.1,1.9-5.1,3.5.6,2.2,1.8,2.8c.6.3,1.6.6,3.2.9,1.3.3,2.2.5,2.5.6.8.2,1.1.5,1.3.6.3.2.4.6.4,1.1,0,.8-.4,1.3-1.2,1.7-.7.3-1.5.5-2.5.5-3.8,0-4.3-1.7-4.3-3v-.7h-1.6v.8c0,1.6.6,2.8,1.9,3.6,1,.6,2.3.9,4,.9s2.4-.2,3.4-.7c1.3-.6,2-1.6,2-2.9s-.5-2.2-1.5-2.8"></path><path class="st2" d="M355.6,95.8l-6,13.1h1.8l1.8-3.9h6l1.7,3.9h1.8l-5.8-13.1h-1.3ZM353.9,103.4l2.3-5,2.2,5h-4.6Z"></path><path class="st2" d="M406,102.1h-6.7v1.6h5.2c0,1.2-.5,2.1-1.4,2.8-.9.6-2,1-3.2,1s-3-.4-4-1.3c-.9-.9-1.4-2.1-1.4-3.8s.5-2.8,1.4-3.8c.9-.9,2.2-1.4,3.9-1.4,2.6,0,4.1,1,4.6,3.1v.4h1.8v-.6c-.4-1.6-1.2-2.8-2.4-3.5-1-.6-2.4-1-3.9-1s-3.8.6-5,1.8c-1.2,1.2-1.9,2.9-1.9,4.9s.7,3.8,1.9,4.9c1.2,1.1,2.9,1.7,5,1.7s3-.4,4.1-1.2c1.4-1,2.2-2.5,2.2-4.3s0-.6,0-.9v-.4Z"></path><polygon class="st2" points="439.3 102.9 446.7 102.9 446.7 101.3 439.3 101.3 439.3 97.4 447.6 97.4 447.6 95.8 437.7 95.8 437.7 108.9 447.7 108.9 447.7 107.3 439.3 107.3 439.3 102.9"></polygon><path class="st2" d="M488.5,106.1c-.9-1.1-2.1-2.6-3.6-4.5-2-2.4-3.5-4.3-4.5-5.6v-.2h-1.6v13.1h1.6v-10.3l8.2,10.3h.9s.6,0,.6,0v-13.1h-1.6v10.3Z"></path><path class="st2" d="M528.7,97.3c1.9,0,3.2.6,4,1.7l.3.4,1.4-.9-.3-.4c-1.1-1.6-2.9-2.4-5.3-2.4s-3.8.6-5,1.8c-1.2,1.2-1.9,2.9-1.9,4.9s.6,3.6,1.8,4.8c1.2,1.2,2.8,1.8,4.9,1.8s4.1-.8,5.4-2.4l.3-.4-1.4-.9-.3.4c-.9,1.2-2.2,1.8-4,1.8s-2.8-.4-3.7-1.4c-.9-.9-1.4-2.1-1.4-3.7s.5-2.8,1.4-3.7c1-.9,2.2-1.4,3.8-1.4"></path><polygon class="st2" points="575.8 95.8 570.9 101.2 566.1 95.8 563.9 95.8 570.1 102.7 570.1 108.9 571.8 108.9 571.8 102.7 577.9 95.8 575.8 95.8"></polygon></g><rect class="st0" y="0" width="595.3" height="126.2"></rect></svg>